<?xml version="1.0" encoding="utf-8"?>
<!-- Generator: Adobe Illustrator 25.4.1, SVG Export Plug-In . SVG Version: 6.00 Build 0)  -->
<svg version="1.0" id="레이어_1" xmlns="http://www.w3.org/2000/svg" xmlns:xlink="http://www.w3.org/1999/xlink" x="0px"
	 y="0px" viewBox="0 0 226.8 43.8" enable-background="new 0 0 226.8 43.8" xml:space="preserve">
<g>
	<g>
		<g>
			<path fill-rule="evenodd" clip-rule="evenodd" d="M34.6,17.4V0h9v43.8h-9V25.9H9v17.8H0V0h9v17.4H34.6z M98.5,0h10.3L88.7,27.4
				v16.4h-9V27.4L59.4,0h10.7l14.2,19.1L98.5,0z M159.9,0c4.2,0,6.4,2.2,6.4,6.4v11c0,2.4-2,4.3-4.4,4.3c2.4,0,4.4,2,4.4,4.3v11.4
				c0,4.2-2.2,6.4-6.4,6.4h-37.4V0H159.9z M131.4,17.7h25.8V8h-25.8V17.7z M131.4,35.8h25.8V25.6h-25.8V35.8z M226.8,8h-34.1v9.5
				h33.2v8h-33.2v10.3h34.1v8h-43.2V0h43.2V8z"/>
		</g>
	</g>
</g>
</svg>
